PathFileType	4	(X/Y/Z)	C:/Users/opensim2020/Desktop/walking_exp_matlab/subject06_walking19_straight_02.trc	
DataRate	CameraRate	NumFrames	NumMarkers	Units	OrigDataRate	OrigDataStartFrame	OrigNumFrames	
100.00	100.00	4	49	mm	100.00	2359	332	
Frame#	Time	LFHD			RFHD			LBHD			RBHD			C7			T10			CLAV			STRN			RBAK			LSHO			LUPA			LELB			LFRM			LWRA			LWRB			LFIN			RSHO			RUPA			RELB			RFRM			RWRA			RWRB			RFIN			LASI			RASI			LPSI			RPSI			LTHI			LKNE			LTIB			LANK			LHEE			LTOE			RTHI			RKNE			RTIB			RANK			RHEE			RTOE			*39			*40			*41			*42			*43			*44			*45			*46			*47			*48			
		X1	Y1	Z1	X2	Y2	Z2	X3	Y3	Z3	X4	Y4	Z4	X5	Y5	Z5	X6	Y6	Z6	X7	Y7	Z7	X8	Y8	Z8	X9	Y9	Z9	X10	Y10	Z10	X11	Y11	Z11	X12	Y12	Z12	X13	Y13	Z13	X14	Y14	Z14	X15	Y15	Z15	X16	Y16	Z16	X17	Y17	Z17	X18	Y18	Z18	X19	Y19	Z19	X20	Y20	Z20	X21	Y21	Z21	X22	Y22	Z22	X23	Y23	Z23	X24	Y24	Z24	X25	Y25	Z25	X26	Y26	Z26	X27	Y27	Z27	X28	Y28	Z28	X29	Y29	Z29	X30	Y30	Z30	X31	Y31	Z31	X32	Y32	Z32	X33	Y33	Z33	X34	Y34	Z34	X35	Y35	Z35	X36	Y36	Z36	X37	Y37	Z37	X38	Y38	Z38	X39	Y39	Z39	X40	Y40	Z40	X41	Y41	Z41	X42	Y42	Z42	X43	Y43	Z43	X44	Y44	Z44	X45	Y45	Z45	X46	Y46	Z46	X47	Y47	Z47	X48	Y48	Z48	X49	Y49	Z49	

167	1.660	-905.59204	296.99670	1668.67432	-1037.27222	284.79123	1663.46130	-918.89502	423.03729	1600.97314	-1047.60461	409.86810	1600.48755	-970.01770	407.43539	1453.61267	-980.85327	439.47598	1125.27588	-973.08368	297.12546	1378.22180	-968.57465	257.53912	1202.22754	-1048.52539	480.21991	1284.20984	-810.75238	342.51096	1410.68042	-734.51892	312.36823	1211.40259	-719.27588	290.62711	1100.99194	-705.71613	213.88873	970.65656	-758.72766	120.95496	888.85754	-717.14923	170.23424	859.83325	-722.61578	99.94600	802.91028	-1133.40942	344.30762	1407.99170	-1220.15430	379.05313	1208.93518	-1231.95349	369.86935	1087.12927	-1250.54211	359.52237	967.30701	-1220.73889	309.59402	823.66626	-1263.28625	361.62585	829.43372	-1265.84180	329.29828	751.21582	-877.47107	261.41443	962.27740	-1098.80591	259.75049	977.86755	-907.14630	418.36267	991.90186	-1075.26672	412.06635	996.96338	-836.03314	350.46240	648.68719	-861.30023	369.37311	485.43402	-882.17944	421.75128	233.58369	-937.33185	430.27939	63.93510	-984.60547	467.95602	51.48972	-935.14600	284.68970	34.65295	-1167.76123	247.35265	650.17871	-1145.05579	204.98888	530.86902	-1149.38416	262.71609	274.69574	-1113.57947	287.14911	87.80661	-1066.04065	322.97818	61.26062	-1129.13293	136.74651	49.65628	-972.25757	395.30484	1699.03284																											 
168	1.670	-905.60986	291.38721	1668.46436	-1037.34131	279.46133	1663.12512	-918.37726	417.41623	1600.70496	-1047.07117	404.25549	1600.11755	-969.63031	402.07724	1453.45520	-980.30933	434.43295	1125.11768	-972.82159	291.83090	1377.94775	-968.12122	252.37459	1201.93652	-1047.79810	475.18045	1284.03113	-810.42065	336.78256	1410.68396	-734.25714	306.04446	1211.51782	-719.29205	283.83899	1101.05469	-706.45593	205.31665	971.69751	-760.36902	111.38738	891.57996	-718.98785	160.43617	861.39337	-725.11328	89.40559	805.68719	-1133.07141	339.25909	1407.60608	-1219.71692	375.10257	1208.71191	-1231.72119	366.42218	1086.91077	-1250.51514	356.89764	967.06995	-1221.17920	307.78113	822.97870	-1263.26563	360.05634	829.08344	-1266.12427	328.06143	750.69653	-876.88257	256.44690	961.94641	-1098.25427	254.63742	977.67761	-906.62726	413.49423	991.55078	-1074.77954	407.02872	996.75269	-835.84442	346.44717	648.39136	-861.20331	366.04614	485.19235	-882.10449	420.10480	233.80679	-937.38416	429.93793	64.10196	-984.58539	467.76038	51.77038	-935.15802	284.56628	34.57521	-1167.56726	241.93953	650.00555	-1144.16687	199.18898	530.81403	-1148.68359	248.77193	272.99133	-1112.84070	266.77896	85.56844	-1065.10461	302.06180	58.32295	-1125.59436	114.86342	49.53167	-972.13300	389.84534	1698.80334																											 
169	1.680	-905.71606	285.76721	1668.24719	-1037.38232	273.98697	1662.71716	-918.32324	411.76138	1600.49854	-1046.70166	398.68250	1599.76172	-969.24451	396.72958	1453.25793	-979.82098	429.34467	1124.89063	-972.56006	286.49826	1377.63000	-967.68915	247.20561	1201.60950	-1047.15002	470.05820	1283.80676	-810.14856	331.09302	1410.59656	-734.07111	299.77765	1211.56360	-719.26318	277.03677	1101.12146	-707.36816	197.29321	972.53827	-762.22424	102.42861	894.01837	-720.97076	150.42610	862.96088	-727.64490	79.09618	808.20020	-1132.79602	334.16461	1407.16772	-1219.26025	371.11179	1208.48657	-1231.53149	362.90796	1086.66724	-1250.54358	354.19885	966.80176	-1221.69470	305.89780	822.28113	-1263.58801	358.46646	828.88629	-1266.85242	327.05032	750.32837	-876.15643	251.62732	961.40546	-1097.58691	249.25816	977.55212	-906.20001	408.66364	991.21429	-1074.30383	401.87567	996.48596	-835.70258	342.39761	648.06635	-861.15802	362.52368	484.94659	-882.08295	418.19626	233.76494	-937.50732	429.53650	64.32318	-984.85785	468.04083	52.59838	-935.11279	284.40054	34.46419	-1167.28894	237.11972	649.90704	-1144.12854	194.02754	530.80859	-1148.00171	235.00008	271.47672	-1111.80884	246.67142	83.55387	-1064.39954	281.69379	56.02022	-1121.90857	93.54491	49.58445	-972.19574	384.44910	1698.53967																											 
170	1.690	-905.83698	280.11365	1667.98926	-1037.57776	268.69550	1662.30579	-917.96643	406.20795	1600.23230	-1046.71912	393.59631	1599.38770	-968.92535	391.24524	1453.00708	-979.33307	424.27301	1124.66943	-972.39575	281.08679	1377.28394	-967.31476	242.00465	1201.27979	-1046.50879	464.73697	1283.51074	-809.88794	325.31909	1410.47192	-733.99890	293.57996	1211.52283	-719.26733	270.28290	1101.14941	-708.32373	188.98753	973.51642	-764.09900	93.62371	896.42303	-722.75739	140.97391	864.58710	-730.28381	69.05421	810.53253	-1132.58630	329.03287	1406.73706	-1218.93372	366.98740	1208.17908	-1231.38562	359.33765	1086.38379	-1250.61951	351.41309	966.51654	-1222.23401	303.91699	821.59863	-1263.85303	356.67923	828.63275	-1267.43225	325.80148	749.86218	-875.49695	246.72681	961.03339	-1097.00891	243.90521	977.28186	-905.79700	403.61206	990.77747	-1073.88220	396.51797	996.13574	-835.46692	338.22641	647.75415	-861.15729	358.78760	484.71411	-882.08197	416.43231	233.92445	-937.68542	429.03894	64.53972	-985.02020	467.78635	53.05888	-935.10516	284.12378	34.33260	-1166.98682	232.06194	649.53143	-1143.46863	188.66345	530.49725	-1147.34058	221.48573	270.11038	-1110.95752	226.78972	81.94692	-1063.78906	261.17767	53.85120	-1118.40515	72.59650	50.07554	-972.05200	378.77295	1698.19287																											 
